<svg width="32" height="25" viewBox="0 0 32 25" fill="none" xmlns="http://www.w3.org/2000/svg">
<path fill-rule="evenodd" clip-rule="evenodd" d="M11.2444 2.10497H16V0H9.14288L9.14291 4.48676H4.70964L4.57142 4.39446L0 11.263L2.04251e-05 18.1315L7.01446e-05 20.2365H4.57507C4.57265 20.2977 4.57142 20.3592 4.57142 20.421C4.57142 22.9499 6.61812 25 9.14285 25C11.6676 25 13.7143 22.9499 13.7143 20.421C13.7143 20.3902 13.714 20.3594 13.7134 20.3287H20.5723C20.5717 20.3594 20.5714 20.3902 20.5714 20.421C20.5714 22.9499 22.6181 25 25.1428 25C27.6676 25 29.7143 22.9499 29.7143 20.421C29.7143 20.3592 29.713 20.2977 29.7106 20.2365H32V18.1315H31.7707V8.79033C31.7707 7.65608 31.4735 6.55011 30.6971 5.72275C29.9096 4.88356 28.7761 4.48675 27.4287 4.48675L16 4.48676L16 2.10497L13.8985 2.10498V4.48676H11.2444V2.10497ZM6.30445 11.5842V6.59173H5.63467L2.31186 11.5842H6.30445ZM11.6128 20.421C11.6128 21.7874 10.507 22.895 9.14285 22.895C7.77874 22.895 6.67291 21.7874 6.67291 20.421C6.67291 19.0546 7.77874 17.947 9.14285 17.947C10.507 17.947 11.6128 19.0546 11.6128 20.421ZM27.6128 20.421C27.6128 21.7874 26.5069 22.895 25.1428 22.895C23.7787 22.895 22.6729 21.7874 22.6729 20.421C22.6729 19.0546 23.7787 17.947 25.1428 17.947C26.5069 17.947 27.6128 19.0546 27.6128 20.421ZM18.2857 15.842V13.5525H20.5714V11.4476H18.2857V8.97351H16.1842V11.4476H13.7143V13.5525H16.1842V15.842H18.2857Z" fill="black"/>
</svg>
