<svg width="34" height="25" viewBox="0 0 34 25" fill="none" xmlns="http://www.w3.org/2000/svg">
<g clip-path="url(#clip0)">
<path d="M0 19.2101C0 18.4153 0.148345 17.6681 0.445034 16.9686C0.741722 16.2691 1.14967 15.6597 1.66888 15.1404C2.19868 14.6211 2.82384 14.213 3.54438 13.9163C4.27551 13.6089 5.07021 13.4552 5.92848 13.4552C6.9351 13.4552 7.84637 13.6778 8.66226 14.1229C9.47815 14.5575 10.1616 15.1351 10.7126 15.8558L9.04372 17.0799C8.68345 16.5712 8.22783 16.1684 7.67683 15.8717C7.13643 15.5643 6.56424 15.4106 5.96027 15.4106C5.43046 15.4106 4.93246 15.506 4.46622 15.6968C4.0106 15.877 3.61324 16.1366 3.27418 16.4758C2.9351 16.8043 2.6649 17.2018 2.46358 17.6681C2.27285 18.1344 2.17749 18.6484 2.17749 19.2101C2.17749 19.7824 2.27815 20.307 2.47948 20.784C2.6808 21.2504 2.951 21.6531 3.29008 21.9923C3.62914 22.3208 4.0265 22.5752 4.48212 22.7553C4.94836 22.9355 5.44107 23.0256 5.96027 23.0256C6.60662 23.0256 7.2053 22.8825 7.7563 22.5963C8.3073 22.2996 8.75233 21.8916 9.0914 21.3722L10.7603 22.5963C10.2305 23.3169 9.55762 23.8998 8.74173 24.345C7.92584 24.7796 7.00398 24.9969 5.97617 24.9969C5.09669 24.9969 4.29139 24.8485 3.56028 24.5517C2.82915 24.255 2.19868 23.8469 1.66888 23.3276C1.14967 22.8083 0.741722 22.1989 0.445034 21.4995C0.148345 20.7893 0 20.0263 0 19.2101Z" fill="white"/>
<path d="M11.4345 22.4851C11.4345 21.7432 11.6729 21.1654 12.1497 20.7522C12.6266 20.3388 13.3047 20.1004 14.1842 20.0368L16.6001 19.8619V19.5439C16.6001 19.1412 16.4676 18.8233 16.2027 18.5901C15.9484 18.357 15.5776 18.2404 15.0902 18.2404C14.359 18.2404 13.6332 18.4842 12.9127 18.9717L12.0385 17.4932C12.5153 17.1434 13.0239 16.8732 13.5643 16.6824C14.1153 16.4916 14.7087 16.3963 15.3445 16.3963C15.8319 16.3963 16.2769 16.4652 16.6796 16.6029C17.0822 16.7407 17.4266 16.9368 17.7127 17.1911C17.9988 17.4455 18.2213 17.7529 18.3802 18.1132C18.5392 18.4629 18.6186 18.8551 18.6186 19.2897V22.5167C18.6186 22.8347 18.7722 22.9937 19.0795 22.9937H19.5086V24.7901H18.5392C18.1365 24.7901 17.7921 24.7053 17.506 24.5358C17.2199 24.3662 17.0027 24.1278 16.8544 23.8204C16.5683 24.1914 16.2027 24.4827 15.7577 24.6948C15.3233 24.8961 14.8305 24.9969 14.2796 24.9969C13.8663 24.9969 13.4848 24.9333 13.1352 24.8061C12.7961 24.6789 12.4994 24.504 12.2451 24.2814C11.9908 24.0588 11.7895 23.7939 11.6411 23.4866C11.5034 23.1792 11.4345 22.8454 11.4345 22.4851ZM13.4213 22.4691C13.4213 22.7553 13.5431 22.9831 13.7868 23.1528C14.0305 23.3222 14.3484 23.407 14.7405 23.407C14.9948 23.407 15.2332 23.37 15.4557 23.2958C15.6888 23.211 15.8901 23.105 16.0597 22.9778C16.2292 22.8401 16.3617 22.6811 16.457 22.5009C16.5524 22.3208 16.6001 22.1246 16.6001 21.9127V21.388L14.4703 21.5789C13.7709 21.6425 13.4213 21.9391 13.4213 22.4691Z" fill="white"/>
<path d="M24.2916 18.3994C23.7935 18.3994 23.3751 18.5689 23.036 18.9081C22.7074 19.2472 22.5433 19.7347 22.5433 20.3706V24.7901H20.4612V16.5712H22.5273V17.4614C22.7392 17.1541 23.0042 16.9156 23.322 16.746C23.6506 16.5765 24.0372 16.4917 24.4824 16.4917H25.0385V18.3994H24.2916Z" fill="white"/>
<path d="M25.4525 20.6728C25.4525 20.1004 25.5583 19.5546 25.7702 19.0353C25.9928 18.516 26.2947 18.0602 26.6763 17.6681C27.0576 17.2759 27.5081 16.9633 28.0273 16.7301C28.5465 16.497 29.1081 16.3804 29.712 16.3804C30.3266 16.3804 30.8882 16.4917 31.3968 16.7142C31.9159 16.9262 32.3611 17.2283 32.7319 17.6204C33.1133 18.0019 33.4048 18.4629 33.606 19.0035C33.8179 19.5439 33.924 20.1322 33.924 20.768V21.3722H27.5821C27.72 21.9127 27.9955 22.3579 28.4086 22.7075C28.8219 23.0467 29.3147 23.2164 29.8868 23.2164C30.3319 23.2164 30.7239 23.1368 31.063 22.9778C31.4127 22.8083 31.7412 22.5274 32.0485 22.1353L33.4948 23.2164C33.0815 23.7886 32.5676 24.2285 31.9531 24.5358C31.3492 24.8432 30.6657 24.9969 29.9028 24.9969C29.2775 24.9969 28.6894 24.8908 28.1385 24.6789C27.5981 24.4562 27.1265 24.1542 26.7239 23.7728C26.3319 23.3912 26.0192 22.9355 25.7862 22.4055C25.5636 21.8755 25.4525 21.298 25.4525 20.6728ZM29.6644 18.1609C29.1768 18.1609 28.7477 18.304 28.3768 18.5901C28.0166 18.8763 27.7622 19.2737 27.6139 19.7824H31.8259C31.6776 19.2737 31.4074 18.8763 31.0154 18.5901C30.6232 18.304 30.1729 18.1609 29.6644 18.1609Z" fill="white"/>
<path d="M1.96899 6.86772C1.96899 7.31285 2.03785 7.72088 2.1756 8.09182C2.31336 8.45217 2.50409 8.76482 2.74779 9.02978C2.99151 9.28414 3.2776 9.4802 3.60608 9.61798C3.94514 9.75577 4.31071 9.82465 4.70276 9.82465C5.08422 9.82465 5.4392 9.75577 5.76767 9.61798C6.10674 9.46961 6.39812 9.26824 6.64184 9.01388C6.89614 8.74891 7.09216 8.43627 7.22991 8.07594C7.36768 7.71559 7.43654 7.31285 7.43654 6.86772V0H9.10542V11.1283H7.45244V10.0949C7.08158 10.487 6.64184 10.7891 6.13324 11.0011C5.63522 11.213 5.09482 11.319 4.51204 11.319C3.91866 11.319 3.36237 11.2183 2.84316 11.017C2.33455 10.805 1.88952 10.5083 1.50806 10.1267C1.1372 9.74516 0.840508 9.28943 0.61799 8.75952C0.40607 8.21901 0.30011 7.6202 0.30011 6.96311V0H1.96899V6.86772Z" fill="white"/>
<path d="M10.7461 0H12.3514V4.05386C12.7223 3.68292 13.1514 3.39147 13.6388 3.1795C14.1262 2.95693 14.656 2.84564 15.2282 2.84564C15.8216 2.84564 16.3779 2.95693 16.8971 3.1795C17.4163 3.40206 17.8666 3.70412 18.2481 4.08566C18.6296 4.46721 18.9315 4.91763 19.1541 5.43695C19.3765 5.95627 19.4879 6.50737 19.4879 7.09028C19.4879 7.6732 19.3765 8.2243 19.1541 8.74362C18.9315 9.25235 18.6296 9.69748 18.2481 10.079C17.8666 10.4606 17.4163 10.7626 16.8971 10.9852C16.3779 11.2077 15.8216 11.319 15.2282 11.319C14.656 11.319 14.1209 11.213 13.6229 11.0011C13.1355 10.7785 12.7064 10.4817 12.3355 10.1108V11.1283H10.7461V0ZM12.3196 7.09028C12.3196 7.48243 12.3885 7.84807 12.5262 8.18721C12.6746 8.52636 12.8759 8.82311 13.1302 9.07746C13.3845 9.33184 13.6812 9.5332 14.0203 9.68158C14.3594 9.82994 14.7249 9.90414 15.117 9.90414C15.4984 9.90414 15.8587 9.82994 16.1978 9.68158C16.5368 9.5332 16.8282 9.33184 17.0719 9.07746C17.3262 8.82311 17.5276 8.52636 17.6759 8.18721C17.8242 7.84807 17.8984 7.48243 17.8984 7.09028C17.8984 6.69814 17.8242 6.3325 17.6759 5.99336C17.5276 5.64362 17.3262 5.34156 17.0719 5.08721C16.8282 4.83283 16.5368 4.63676 16.1978 4.49899C15.8587 4.35061 15.4984 4.27643 15.117 4.27643C14.7355 4.27643 14.3753 4.35061 14.0362 4.49899C13.6971 4.63676 13.4004 4.83283 13.1461 5.08721C12.8918 5.34156 12.6905 5.64362 12.5421 5.99336C12.3938 6.3325 12.3196 6.69814 12.3196 7.09028Z" fill="white"/>
<path d="M20.4401 7.07439C20.4401 6.50207 20.5459 5.96156 20.7578 5.45285C20.9697 4.94412 21.2612 4.49899 21.6321 4.11744C22.003 3.72531 22.4426 3.41796 22.9513 3.1954C23.4598 2.97283 24.0108 2.86154 24.6042 2.86154C25.187 2.86154 25.7275 2.96753 26.2254 3.1795C26.7234 3.39147 27.1526 3.68821 27.5128 4.06976C27.8732 4.4407 28.1538 4.88582 28.3553 5.40514C28.5565 5.91386 28.6572 6.47027 28.6572 7.07439V7.59901H22.0612C22.1141 7.92755 22.2202 8.23491 22.3792 8.52106C22.538 8.79662 22.7341 9.04037 22.9671 9.25233C23.2108 9.45371 23.4811 9.61268 23.7778 9.72926C24.085 9.84584 24.4081 9.90413 24.7472 9.90413C25.7115 9.90413 26.4904 9.50671 27.0837 8.71182L28.2441 9.57029C27.8414 10.1108 27.3433 10.5347 26.7499 10.8421C26.1567 11.1494 25.489 11.3031 24.7472 11.3031C24.1433 11.3031 23.5765 11.1971 23.0467 10.9852C22.5275 10.7732 22.0719 10.4764 21.6797 10.0949C21.2983 9.71336 20.9964 9.26823 20.7738 8.75952C20.5513 8.2402 20.4401 7.67849 20.4401 7.07439ZM24.5724 4.26053C23.9685 4.26053 23.4387 4.4513 22.9831 4.83283C22.538 5.20378 22.2413 5.70189 22.093 6.3272H27.0361C26.8982 5.70189 26.6016 5.20378 26.146 4.83283C25.7009 4.4513 25.1764 4.26053 24.5724 4.26053Z" fill="white"/>
<path d="M33.3325 4.45131C32.8026 4.45131 32.3682 4.63677 32.0291 5.00773C31.69 5.37867 31.5206 5.88209 31.5206 6.51799V11.1283H29.9152V3.02054H31.5046V4.02207C31.706 3.69352 31.9655 3.43387 32.2835 3.2431C32.6119 3.05233 32.9987 2.95694 33.4437 2.95694H34V4.45131H33.3325Z" fill="white"/>
</g>
<defs>
<clipPath id="clip0">
<rect width="34" height="25" fill="white"/>
</clipPath>
</defs>
</svg>
