<svg width="18" height="17" viewBox="0 0 18 17" fill="none" xmlns="http://www.w3.org/2000/svg">
<path d="M4.62847 7.52343C6.25443 6.5932 7.58642 4.51125 7.20898 3.00612C6.41797 0.5 5.41812 0 3.20898 0C0.999845 0 0 0.520837 0 3.00612C0 3.85702 0.0927061 4.71137 0.303299 5.46707L0.285507 5.47298C2.03719 10.7448 6.24949 13.8559 10.325 15.1641C11.4379 15.6328 12.9351 15.843 14.2091 16C16.6757 16.304 16.9388 15.6925 17.2091 13.5C17.2267 13.3566 17.2502 13.2041 17.2746 13.045C17.5058 11.5403 17.8266 9.4522 14.2091 9.00001C12.3075 9.00001 10.2732 10.0456 9.28918 11.511C7.52116 10.6229 5.86553 9.30332 4.62847 7.52343Z" fill="black"/>
</svg>
