<svg width="73" height="25" viewBox="0 0 73 25" fill="none" xmlns="http://www.w3.org/2000/svg">
<path d="M4.02595 15.2508C4.02595 16.1895 4.17114 17.0499 4.46157 17.8322C4.75203 18.5921 5.15417 19.2514 5.66798 19.8101C6.18183 20.3465 6.78504 20.76 7.47761 21.0505C8.19249 21.3411 8.96325 21.4864 9.78985 21.4864C10.5941 21.4864 11.3426 21.3411 12.0351 21.0505C12.75 20.7377 13.3644 20.313 13.8782 19.7766C14.4144 19.2178 14.8277 18.5585 15.1181 17.7987C15.4086 17.0388 15.5538 16.1895 15.5538 15.2508V0.768127H19.0725V24.2354H15.5873V22.0563C14.8054 22.8832 13.8782 23.5202 12.8059 23.9672C11.7559 24.4142 10.6165 24.6377 9.38775 24.6377C8.13665 24.6377 6.96375 24.4253 5.86905 24.0007C4.79671 23.5537 3.8584 22.9279 3.05411 22.1233C2.27219 21.3187 1.64664 20.3577 1.17748 19.2402C0.730671 18.1004 0.507263 16.8376 0.507263 15.4519V0.768127H4.02595V15.2508Z" fill="white"/>
<path d="M22.6087 0.768127H26.018V9.31691C26.8056 8.53468 27.7169 7.92006 28.7521 7.47307C29.7873 7.0037 30.9124 6.76902 32.1276 6.76902C33.3878 6.76902 34.5692 7.0037 35.6718 7.47307C36.7745 7.94239 37.7309 8.57937 38.541 9.38397C39.3512 10.1886 39.9925 11.1384 40.4651 12.2336C40.9374 13.3287 41.1739 14.4909 41.1739 15.7201C41.1739 16.9494 40.9374 18.1115 40.4651 19.2067C39.9925 20.2795 39.3512 21.2182 38.541 22.0227C37.7309 22.8273 36.7745 23.4643 35.6718 23.9336C34.5692 24.403 33.3878 24.6377 32.1276 24.6377C30.9124 24.6377 29.776 24.4142 28.7184 23.9672C27.6832 23.4979 26.7718 22.872 25.9842 22.0898V24.2354H22.6087V0.768127ZM25.9504 15.7201C25.9504 16.5471 26.0967 17.3181 26.3893 18.0333C26.7043 18.7485 27.1319 19.3743 27.6719 19.9107C28.212 20.4471 28.8421 20.8717 29.5622 21.1846C30.2823 21.4975 31.0587 21.654 31.8913 21.654C32.7014 21.654 33.4665 21.4975 34.1866 21.1846C34.9067 20.8717 35.5256 20.4471 36.0431 19.9107C36.5832 19.3743 37.0108 18.7485 37.3258 18.0333C37.6408 17.3181 37.7984 16.5471 37.7984 15.7201C37.7984 14.8932 37.6408 14.1221 37.3258 13.4069C37.0108 12.6694 36.5832 12.0324 36.0431 11.496C35.5256 10.9596 34.9067 10.5461 34.1866 10.2556C33.4665 9.94269 32.7014 9.78627 31.8913 9.78627C31.0812 9.78627 30.3161 9.94269 29.596 10.2556C28.8758 10.5461 28.2458 10.9596 27.7057 11.496C27.1656 12.0324 26.7381 12.6694 26.423 13.4069C26.108 14.1221 25.9504 14.8932 25.9504 15.7201Z" fill="white"/>
<path d="M43.8261 15.7805C43.8261 14.5818 44.0539 13.4496 44.5098 12.3841C44.9658 11.3186 45.593 10.3862 46.391 9.58707C47.1891 8.76573 48.135 8.12197 49.2296 7.65582C50.3238 7.18964 51.5094 6.95654 52.7863 6.95654C54.0403 6.95654 55.2033 7.17855 56.2746 7.62252C57.3463 8.06649 58.2697 8.68804 59.0448 9.48719C59.8203 10.2641 60.4241 11.1965 60.8575 12.2842C61.2906 13.3497 61.5073 14.5151 61.5073 15.7805V16.8793H47.3144C47.4283 17.5675 47.6565 18.2112 47.9985 18.8106C48.3402 19.3877 48.7622 19.8983 49.2636 20.3423C49.788 20.7641 50.3697 21.097 51.008 21.3412C51.6692 21.5854 52.3644 21.7075 53.094 21.7075C55.1689 21.7075 56.8449 20.8751 58.1214 19.2101L60.6183 21.0082C59.7518 22.1404 58.6802 23.0283 57.4032 23.6721C56.1267 24.3158 54.69 24.6377 53.094 24.6377C51.7945 24.6377 50.5749 24.4157 49.4348 23.9717C48.3177 23.5278 47.3373 22.9062 46.4934 22.1071C45.6729 21.3079 45.0231 20.3756 44.5443 19.31C44.0654 18.2223 43.8261 17.0458 43.8261 15.7805ZM52.7179 9.88677C51.4184 9.88677 50.2783 10.2863 49.298 11.0855C48.3402 11.8624 47.702 12.9057 47.3828 14.2155H58.019C57.7224 12.9057 57.0841 11.8624 56.1038 11.0855C55.146 10.2863 54.0174 9.88677 52.7179 9.88677Z" fill="white"/>
<path d="M71.5553 10.1901C70.4086 10.1901 69.4683 10.5914 68.7344 11.3941C68.0006 12.1967 67.6338 13.286 67.6338 14.662V24.6377H64.1594V7.09417H67.5992V9.26127C68.0352 8.55036 68.5968 7.98853 69.2849 7.57573C69.9957 7.16294 70.833 6.95654 71.796 6.95654H73V10.1901H71.5553Z" fill="white"/>
</svg>
